<svg class="background_image"  xmlns="http://www.w3.org/2000/svg" width="796.057" height="828.494" viewBox="40 86.571 446.057 828.494"><defs><linearGradient id="b" gradientTransform="rotate(255 .5 .5)"><stop offset="0%" stop-color="rgba(255, 255, 255, 0)"/><stop offset="50%" stop-color="rgba(255, 190, 170, 0.1)"/><stop offset="100%" stop-color="#FF6E40"/></linearGradient><clipPath id="a"><path fill="currentColor" d="M805.5 590.5q-56.5 90.5-115 203t-193 121Q363 923 305 803.5T127 592Q7 500 52.5 354T251 206.5q153-1.5 277-87t181 51q57 136.5 105 233t-8.5 187Z"/></clipPath></defs><g clip-path="url(#a)"><path fill="url(#b)" d="M805.5 590.5q-56.5 90.5-115 203t-193 121Q363 923 305 803.5T127 592Q7 500 52.5 354T251 206.5q153-1.5 277-87t181 51q57 136.5 105 233t-8.5 187Z"/></g></svg>